<?xml version="1.0" standalone="no"?>
<!DOCTYPE svg PUBLIC "-//W3C//DTD SVG 20010904//EN"
 "http://www.w3.org/TR/2001/REC-SVG-20010904/DTD/svg10.dtd">
<svg version="1.0" xmlns="http://www.w3.org/2000/svg"
 width="800.000000pt" height="450.000000pt" viewBox="0 0 800.000000 450.000000"
 preserveAspectRatio="xMidYMid meet">

<g transform="translate(0.000000,450.000000) scale(0.100000,-0.100000)"
fill="#000000" stroke="none">
<path d="M0 2250 l0 -2250 2195 0 c1749 0 2195 3 2195 13 0 8 3 7 10 -3 7 -12
12 -11 28 8 11 12 30 22 43 21 22 0 23 -1 4 -9 -17 -7 -17 -9 -2 -9 9 -1 17
-5 17 -11 0 -5 204 -9 535 -10 427 0 535 2 535 12 0 9 3 8 10 -2 7 -12 12 -12
22 -2 6 6 33 12 59 12 50 0 73 14 39 23 -11 3 -20 12 -20 21 0 12 11 16 48 17
91 1 4 21 -111 25 -93 3 -112 1 -143 -16 -41 -23 -58 -26 -30 -5 11 8 17 15
13 15 -7 0 50 80 85 118 12 13 24 19 27 13 3 -5 42 -12 86 -16 84 -7 196 -31
205 -44 3 -5 41 -17 85 -27 44 -10 78 -23 75 -28 -6 -11 23 -22 139 -52 97
-25 166 -31 176 -15 6 11 127 71 142 71 6 0 23 18 38 40 15 22 34 40 41 40 7
0 33 16 58 35 26 19 53 35 62 35 11 0 13 6 9 20 -5 15 6 35 44 79 28 32 47 61
43 65 -4 4 1 12 11 17 9 6 17 15 17 22 0 13 48 57 62 57 5 0 23 14 39 31 27
27 30 37 25 68 -5 33 -2 39 41 78 41 37 45 44 32 59 -11 14 -11 18 6 30 10 8
23 14 28 14 4 0 6 9 2 19 -6 19 21 40 109 86 23 12 18 30 -10 30 -11 0 -29 8
-39 19 -19 18 -19 19 2 36 12 9 46 21 75 25 40 7 46 10 26 13 -16 2 -28 7 -28
12 0 4 -12 11 -26 14 -24 7 -25 8 -10 25 9 10 13 20 10 24 -4 3 6 9 20 13 21
5 24 9 16 19 -9 10 -7 16 8 24 11 6 22 8 25 5 3 -4 5 4 4 17 0 13 -5 27 -10
30 -4 3 6 12 22 19 17 7 47 27 67 45 34 32 35 33 14 40 -17 5 -19 9 -9 21 10
12 9 17 -5 27 -16 12 -16 14 0 47 10 19 23 39 31 43 7 4 13 16 13 25 0 23 45
71 100 107 24 17 54 40 65 52 30 33 62 38 75 13 6 -11 8 -25 5 -30 -3 -6 -1
-10 4 -10 6 0 11 -7 11 -15 0 -20 30 -34 63 -28 23 5 27 2 27 -17 0 -21 6 -22
58 -3 9 4 12 -11 12 -53 0 -33 4 -54 8 -48 4 6 17 14 29 18 18 6 23 1 34 -29
10 -28 17 -34 33 -29 17 6 19 3 13 -39 -7 -53 6 -70 50 -65 23 2 29 -1 31 -19
2 -13 13 -30 25 -38 19 -13 20 -18 9 -35 -16 -26 -15 -30 3 -30 14 0 15 47 15
380 -1 227 -5 378 -10 375 -5 -3 -6 -13 -3 -21 4 -11 -7 -8 -35 11 -24 15 -42
36 -42 46 0 25 36 34 56 15 8 -9 20 -16 25 -16 12 0 8 656 -4 685 -7 16 -7 17
2 5 8 -11 11 245 11 908 l0 922 -1319 0 -1319 0 -45 -70 c-38 -60 -55 -95 -96
-204 -6 -16 -13 -7 -40 45 -19 35 -49 83 -67 106 -19 23 -34 45 -34 50 0 4 5
1 11 -7 9 -12 10 -11 6 5 -3 15 1 21 14 21 11 0 19 -4 19 -8 0 -4 -6 -8 -12
-8 -9 0 -8 -4 2 -10 11 -7 11 -10 2 -10 -7 0 -10 -4 -7 -10 4 -6 13 -5 25 2
13 9 16 17 10 28 -11 21 6 40 35 40 11 0 29 7 39 15 18 13 0 15 -164 15 l-184
0 86 -87 c125 -130 176 -226 200 -379 36 -229 -95 -478 -354 -674 -96 -72
-239 -149 -200 -108 12 13 19 28 15 31 -3 4 -1 7 5 7 7 0 12 4 12 9 0 5 -9 7
-20 4 -17 -5 -20 0 -20 30 0 29 5 37 30 47 17 7 30 16 30 21 0 14 -10 11 -38
-12 -23 -18 -27 -18 -30 -5 -13 61 -381 160 -706 191 -23 2 -75 8 -116 14 -41
6 -149 20 -239 31 -103 13 -172 27 -188 37 -27 18 -43 51 -43 87 0 29 -37 64
-81 76 -19 6 -79 11 -134 12 -123 1 -208 -20 -256 -65 -19 -17 -37 -30 -42
-29 -4 1 -6 -1 -6 -5 4 -22 -3 -31 -26 -35 -13 -3 -22 -1 -19 3 3 5 0 9 -5 9
-6 0 -11 -12 -11 -27 0 -16 -7 -41 -15 -56 -8 -15 -11 -35 -8 -44 6 -15 7 -14
15 3 6 16 7 15 5 -6 -3 -31 -37 -41 -37 -11 0 29 -27 26 -32 -4 -3 -13 -2 -22
2 -20 5 3 10 -2 14 -10 3 -8 12 -15 21 -15 18 0 19 -9 5 -44 -5 -14 -15 -26
-22 -25 -10 0 -10 2 0 6 17 7 15 43 -3 43 -8 0 -15 5 -15 10 0 20 -21 10 -32
-15 -10 -21 -9 -29 6 -43 16 -16 17 -15 11 13 -4 24 -4 26 4 9 5 -11 9 -37 9
-58 0 -35 -2 -37 -24 -32 -15 4 -24 2 -24 -5 0 -7 -8 -5 -20 6 -11 10 -20 14
-20 9 0 -5 -5 -1 -11 9 -5 9 -7 23 -3 30 5 7 1 6 -10 -3 -17 -13 -16 -16 15
-43 56 -47 59 -48 70 -41 8 4 7 9 -2 15 -11 7 -11 9 -1 9 7 0 15 -7 18 -15 10
-24 22 -17 26 13 2 15 9 27 16 27 7 0 17 6 21 14 6 9 11 10 15 2 4 -6 4 -16 1
-21 -3 -5 -1 -10 4 -10 6 0 11 10 11 21 0 17 3 19 14 10 11 -9 15 -9 19 1 4 9
6 7 6 -4 2 -30 34 -75 68 -93 18 -10 33 -22 33 -26 0 -5 7 -6 16 -2 10 4 20 0
26 -10 9 -16 38 -24 38 -10 0 3 -15 19 -33 34 -28 25 -29 28 -11 29 11 0 29
-8 40 -17 10 -10 30 -19 44 -21 18 -2 21 0 11 6 -11 8 -11 10 0 14 11 4 10 9
-3 30 -21 31 -9 57 16 33 9 -9 16 -23 16 -30 0 -15 37 -37 80 -49 l25 -7 -24
19 c-26 21 -25 55 2 60 9 2 17 -2 17 -8 0 -14 19 -33 48 -49 24 -13 27 -9 12
20 -8 15 -7 19 4 19 8 0 17 -10 19 -22 3 -18 5 -17 6 7 1 23 3 27 11 15 5 -8
10 -12 10 -8 0 4 11 3 25 -2 23 -9 25 -8 15 10 -6 11 -6 21 -1 24 5 4 11 3 13
-1 1 -5 17 -18 34 -30 26 -18 46 -22 101 -22 38 0 73 0 78 -1 28 -6 37 0 25
15 -7 9 -11 17 -9 20 8 7 84 -23 82 -33 -1 -5 5 -9 12 -9 32 0 96 -26 83 -34
-10 -6 -10 -11 -1 -20 8 -8 20 -9 42 -1 23 8 30 8 28 -1 -1 -6 9 -13 23 -15
14 -2 32 -6 40 -9 22 -9 28 -10 51 -12 11 0 17 -5 14 -11 -4 -6 6 -10 24 -10
23 0 29 -4 25 -15 -5 -12 4 -15 47 -16 30 -1 64 0 77 1 12 1 24 -5 27 -12 4
-9 22 -12 63 -10 53 3 56 3 37 -12 -17 -13 -18 -15 -3 -16 9 0 20 5 23 10 3 6
21 10 39 10 28 0 167 31 241 54 11 4 1 -2 -22 -13 -234 -110 -666 -176 -983
-151 -394 30 -755 164 -956 355 -37 34 -54 57 -49 66 5 8 4 10 -3 5 -7 -4 -25
11 -44 39 -37 51 -98 165 -97 180 0 6 12 -12 26 -40 14 -27 43 -69 64 -92 25
-27 36 -48 33 -58 -4 -10 -2 -15 6 -13 10 2 20 -9 37 -41 1 -1 6 0 11 3 6 4 3
26 -9 56 -11 29 -15 50 -9 50 6 0 13 -7 16 -15 10 -24 31 -17 38 11 8 32 4 37
-29 37 -32 0 -39 11 -30 45 l8 27 12 -29 c13 -30 30 -21 18 10 -5 14 -3 16 11
11 10 -4 19 -7 22 -7 2 0 1 -8 -2 -17 -3 -12 0 -10 7 3 8 15 7 32 -2 65 -7 24
-12 56 -12 72 0 17 -5 27 -15 27 -10 0 -13 -7 -10 -25 4 -18 1 -25 -10 -25 -9
0 -13 7 -9 20 3 11 1 22 -3 25 -4 3 -11 29 -15 58 -4 28 -10 66 -15 84 -6 25
-5 31 6 26 8 -3 14 0 14 6 0 6 10 12 23 12 16 1 18 2 5 6 -20 5 -25 48 -7 59
6 3 8 17 4 32 -5 21 0 31 27 54 18 15 41 28 50 28 9 0 19 4 22 9 3 5 16 7 28
3 l22 -5 -23 36 -23 37 22 30 c12 16 19 34 16 39 -4 5 6 12 22 15 30 7 66 66
44 74 -7 2 -12 8 -12 14 0 6 6 8 14 5 10 -4 14 0 13 11 -1 14 -8 17 -34 14
-18 -2 -33 -8 -33 -13 0 -5 -9 -9 -19 -9 -10 0 -21 -7 -25 -15 -3 -8 -1 -15 5
-15 6 0 7 -5 4 -10 -4 -6 -10 -8 -15 -5 -32 20 -165 -91 -154 -129 4 -17 3
-18 -5 -6 -7 10 -11 11 -11 3 0 -7 -12 -25 -28 -40 -15 -16 -40 -54 -55 -87
-15 -32 -30 -56 -33 -54 -2 3 2 18 11 34 8 16 15 33 15 37 0 13 68 115 103
155 53 60 109 114 172 167 33 27 65 53 70 58 6 4 -141 7 -326 5 l-336 -3 -32
-32 c-38 -39 -34 -40 53 -13 36 12 76 18 90 14 17 -4 27 -1 34 13 17 29 27 6
27 -60 0 -141 -69 -252 -232 -370 -59 -43 -208 -115 -303 -147 -203 -68 -523
-103 -755 -82 -231 22 -372 59 -555 149 -96 48 -127 69 -191 132 -96 95 -130
160 -137 256 -2 39 0 87 6 108 l10 37 -34 0 -34 0 0 -2250z m7050 1974 c0 -21
-4 -33 -10 -29 -5 3 -10 18 -10 33 0 16 -3 22 -8 15 -5 -8 -12 -8 -25 2 -17
13 -17 14 10 17 39 5 43 2 43 -38z m40 36 c0 -5 -5 -10 -11 -10 -5 0 -7 5 -4
10 3 6 8 10 11 10 2 0 4 -4 4 -10z m-148 -27 c-7 -3 -19 -11 -27 -20 -8 -8
-15 -10 -15 -5 0 12 43 42 50 35 3 -3 -1 -8 -8 -10z m333 -39 c8 -19 21 -34
29 -34 21 0 20 26 0 34 -9 4 -14 9 -11 12 4 5 23 -5 65 -32 2 -1 5 -10 6 -21
2 -10 11 -20 21 -21 11 -3 15 0 11 7 -11 18 7 12 34 -10 14 -11 19 -18 13 -14
-7 3 -13 1 -13 -5 0 -6 8 -9 18 -6 12 4 31 -8 63 -42 79 -82 89 -99 88 -156
-1 -38 -3 -44 -8 -26 -6 21 -8 22 -14 8 -4 -12 -12 -15 -24 -11 -16 6 -17 5
-3 -12 14 -17 13 -18 -2 -12 -11 4 -22 -2 -32 -19 -14 -20 -24 -24 -64 -23
-94 1 -172 -6 -172 -17 0 -7 -24 -10 -67 -8 -81 4 -102 6 -101 14 2 18 -4 23
-11 11 -15 -24 -95 23 -135 78 -30 42 -66 110 -66 125 0 16 17 3 33 -25 23
-41 32 -32 11 10 -19 38 -31 111 -18 111 5 0 16 -5 24 -10 12 -7 16 -4 20 18
7 35 47 40 42 5 -2 -16 2 -23 12 -23 11 0 16 10 16 33 0 22 3 28 9 18 7 -11
11 -10 19 5 10 18 12 18 24 2 7 -9 27 -18 43 -20 24 -2 30 1 29 15 -1 9 2 17
7 17 5 0 10 -15 10 -32 l1 -33 7 30 c5 23 12 30 29 29 24 -1 30 11 10 20 -7 3
-3 3 10 0 17 -4 22 -1 22 15 0 14 -6 21 -20 21 -11 0 -20 4 -20 9 0 22 42 -5
55 -35z m-4794 -167 c-10 -9 -11 -8 -5 6 3 10 9 15 12 12 3 -3 0 -11 -7 -18z
m-164 -189 c-2 -13 -4 -5 -4 17 -1 22 1 32 4 23 2 -10 2 -28 0 -40z m157 21
c-6 -11 -24 -2 -24 11 0 5 7 7 15 4 8 -4 12 -10 9 -15z m5096 -44 c-7 -9 -15
-13 -17 -11 -7 7 7 26 19 26 6 0 6 -6 -2 -15z m-5194 -109 c2 -14 0 -26 -6
-26 -5 0 -10 14 -10 32 0 36 9 33 16 -6z m134 -47 c0 -5 -4 -9 -10 -9 -5 0
-10 7 -10 16 0 8 5 12 10 9 6 -3 10 -10 10 -16z m-67 -19 c3 -11 1 -18 -4 -14
-5 3 -9 12 -9 20 0 20 7 17 13 -6z m5057 -150 c6 -11 8 -20 6 -20 -3 0 -10 9
-16 20 -6 11 -8 20 -6 20 3 0 10 -9 16 -20z m-3998 -14 c35 -13 151 -53 258
-88 117 -38 186 -64 171 -66 -36 -6 -92 7 -85 20 4 7 1 7 -12 0 -12 -6 -37 -7
-64 -2 -25 5 -57 6 -72 3 -21 -4 -28 -2 -28 10 0 8 6 18 13 20 6 3 3 6 -9 6
-30 1 -81 29 -88 47 -3 8 -10 13 -15 9 -15 -9 -2 -32 22 -40 14 -4 17 -8 10
-11 -35 -15 -143 44 -143 78 0 6 -8 17 -17 24 -26 20 -11 17 59 -10z m4158
-246 c0 -4 4 -10 8 -12 14 -5 138 -210 171 -282 17 -38 41 -82 52 -97 11 -16
18 -29 14 -29 -3 0 6 -17 20 -37 14 -21 25 -44 25 -53 0 -8 -13 8 -28 35 -33
60 -122 178 -129 171 -7 -7 -43 27 -43 41 0 6 -6 18 -12 25 -49 52 -138 169
-138 182 0 8 -4 17 -9 20 -5 4 -28 38 -50 76 -32 56 -39 78 -35 103 14 87 10
88 85 -27 38 -59 69 -111 69 -116z m-4980 194 c0 -8 -4 -12 -10 -9 -5 3 -10
10 -10 16 0 5 5 9 10 9 6 0 10 -7 10 -16z m160 -55 c0 -14 -16 -11 -29 5 -10
12 -8 13 8 9 12 -3 21 -9 21 -14z m54 3 c2 -4 -2 -15 -9 -25 -11 -15 -14 -15
-25 -3 -6 9 -9 20 -5 26 7 12 32 13 39 2z m64 -4 c-6 -18 -28 -21 -28 -4 0 9
7 16 16 16 9 0 14 -5 12 -12z m547 -19 c10 -15 -1 -23 -20 -15 -9 3 -13 10
-10 16 8 13 22 13 30 -1z m510 -47 c-3 -3 -11 0 -18 7 -9 10 -8 11 6 5 10 -3
15 -9 12 -12z m565 -76 c0 -2 -7 -7 -16 -10 -8 -3 -12 -2 -9 4 6 10 25 14 25
6z m-2651 -327 c7 5 28 5 47 1 19 -4 34 -6 34 -3 0 3 6 0 14 -6 8 -7 16 -8 18
-2 7 20 78 17 78 -4 0 -8 6 -15 13 -15 19 0 40 17 34 26 -3 5 19 11 48 12 40
2 54 -1 58 -12 4 -9 13 -16 22 -16 10 0 15 -10 15 -27 0 -22 2 -25 10 -13 8
12 10 12 10 1 0 -7 11 -24 24 -36 13 -12 23 -31 23 -41 -1 -11 6 -20 18 -22
54 -9 111 -52 101 -78 -5 -13 -2 -15 13 -11 13 3 18 1 15 -8 -3 -7 4 -16 15
-20 12 -3 21 -12 21 -20 0 -7 6 -16 13 -19 6 -3 -1 -3 -18 0 -280 57 -427 68
-775 61 -213 -5 -320 -11 -425 -27 -250 -37 -512 -105 -773 -200 -139 -51
-169 -59 -141 -37 9 7 14 18 12 25 -3 6 2 12 11 12 9 0 16 5 16 10 0 6 -7 10
-15 10 -13 0 -15 7 -9 35 3 20 2 41 -4 48 -6 6 -10 41 -10 77 1 122 0 131 -22
137 -15 4 -18 9 -10 18 6 7 8 20 4 29 -3 9 -2 16 4 16 6 0 8 9 5 20 -6 22 -23
27 -23 8 -1 -7 -8 -1 -16 15 -16 29 -11 52 9 40 22 -14 48 -13 53 2 9 23 20
18 38 -17 14 -30 16 -31 16 -9 0 18 4 22 18 16 38 -15 72 -17 72 -6 0 7 5 9
12 5 6 -4 17 1 25 11 12 17 13 17 13 2 0 -10 8 -17 20 -17 11 0 20 5 20 10 0
6 7 10 15 10 8 0 15 -4 15 -9 0 -13 62 -23 74 -11 14 14 36 12 68 -4 23 -12
29 -12 47 1 19 13 21 12 21 -6 0 -22 14 -28 25 -11 3 5 12 7 20 4 7 -3 25 2
39 11 24 16 28 16 51 1 13 -9 31 -16 39 -16 8 0 17 -8 19 -17 3 -10 5 -5 6 12
1 20 4 26 10 17 4 -7 12 -12 17 -11 5 1 14 0 19 -1 6 -2 37 -4 70 -5 33 -1 78
-3 100 -5 22 -2 68 0 101 4 41 5 64 4 68 -3 5 -7 13 -8 24 -2 10 5 35 8 57 6
21 -2 48 1 59 8 24 13 41 17 114 22 29 2 59 9 67 15 8 7 14 7 17 1 1 -6 13 -8
25 -5 13 4 20 11 17 16 -4 6 1 6 13 0 10 -6 25 -7 32 -3z m438 -71 c-3 -7 -5
-2 -5 12 0 14 2 19 5 13 2 -7 2 -19 0 -25z m3939 -719 c6 -5 83 -10 171 -11
89 -2 159 -6 156 -11 -2 -4 8 -7 24 -7 55 2 199 -10 228 -18 l29 -8 -57 -35
c-116 -69 -429 -279 -494 -330 -153 -121 -358 -292 -533 -444 -102 -89 -202
-171 -223 -184 -99 -60 -195 -169 -221 -251 -20 -61 -25 -146 -8 -143 6 2 12
-6 12 -17 0 -11 5 -20 10 -20 15 0 12 -26 -5 -40 -12 -10 -10 -16 14 -38 l29
-27 -37 -28 c-20 -15 -64 -50 -98 -76 -33 -27 -89 -65 -122 -86 l-62 -37 -23
24 c-40 38 -60 53 -75 53 -16 0 -44 72 -36 93 4 11 -1 13 -20 8 -22 -6 -25 -3
-25 19 0 14 3 25 8 25 14 0 76 104 64 108 -7 2 -12 13 -13 25 l0 22 -11 -23
c-6 -12 -15 -22 -20 -22 -17 0 -20 30 -9 96 6 38 9 69 7 71 -9 10 -36 -12 -36
-29 0 -10 -4 -17 -9 -14 -5 3 -4 26 1 53 5 27 11 68 13 93 l4 45 -33 -38 c-27
-33 -34 -36 -44 -24 -15 17 -4 51 29 96 13 18 23 50 26 90 6 58 5 61 -17 61
-22 0 -22 1 -15 82 4 46 10 89 15 98 4 8 11 36 15 63 4 26 11 47 16 47 5 0 6
-18 3 -40 -8 -59 3 -49 25 25 24 75 48 125 61 125 5 0 7 6 5 13 -6 14 1 25 34
52 l23 20 -4 -43 c-3 -37 -2 -41 9 -26 7 10 13 25 13 35 0 9 6 22 14 29 8 6
13 17 11 23 -3 7 2 21 10 31 15 20 15 20 29 1 13 -19 15 -17 21 18 8 39 19 48
29 22 10 -26 24 -16 31 22 l7 36 19 -29 c10 -16 19 -23 19 -16 0 7 7 24 16 38
l17 25 15 -22 15 -22 18 24 c10 13 19 18 19 12 0 -7 5 -13 11 -13 8 0 9 13 5
39 -8 50 8 61 29 21 8 -16 18 -30 21 -30 2 0 2 23 0 50 -3 32 -1 50 5 50 6 0
13 -9 16 -19 3 -11 11 -17 18 -14 8 2 11 11 9 18 -3 7 -1 16 5 19 6 4 8 22 5
43 l-6 36 26 -29 c14 -16 26 -24 26 -17 0 7 7 10 15 7 15 -6 20 9 16 49 -3 26
12 21 55 -18 21 -19 40 -35 42 -35 3 0 2 23 -2 50 -7 54 2 62 46 39 15 -8 19
-8 14 0 -4 7 1 11 13 11 13 0 21 7 21 16 0 12 4 14 13 7 16 -13 57 -23 57 -14
0 4 -6 13 -12 21 -7 7 8 2 34 -12 40 -22 48 -24 53 -10 3 8 1 20 -5 26 -23 23
-7 24 33 3 47 -25 67 -25 67 2 0 21 -6 20 220 30 25 2 39 5 33 8 -7 2 -13 9
-13 14 0 9 27 2 46 -12z m-3872 0 c-6 -11 -31 -12 -37 -1 -3 4 6 8 19 8 13 1
21 -2 18 -7z m2061 -59 c7 0 16 -8 18 -17 3 -11 5 -7 6 10 1 24 5 27 34 27 18
0 38 5 45 12 9 9 12 7 12 -10 0 -14 6 -22 18 -22 10 0 13 -3 6 -8 -6 -4 -11
-14 -11 -22 0 -8 -17 -60 -37 -115 -59 -159 -149 -501 -180 -680 -9 -49 -19
-151 -23 -225 -6 -122 -8 -132 -19 -105 l-13 30 -1 -26 c0 -15 -7 -29 -15 -33
-8 -3 -15 -12 -15 -21 0 -8 -4 -15 -10 -15 -5 0 -10 -11 -10 -25 0 -23 -3 -25
-46 -23 -47 1 -70 22 -43 39 9 6 10 9 2 9 -6 0 -15 -5 -18 -10 -12 -19 -22
-10 -17 15 2 14 1 25 -4 24 -22 -4 -34 2 -34 16 0 8 -7 15 -15 15 -8 0 -15 2
-15 4 0 30 -34 285 -45 335 -55 255 -139 433 -314 666 -57 76 -70 103 -36 75
13 -11 14 -10 8 6 -5 16 -4 17 8 8 20 -17 84 -25 189 -27 57 0 90 -5 90 -11 0
-7 3 -8 8 -1 4 6 14 10 22 10 8 0 18 -4 22 -10 5 -7 8 -7 8 0 0 6 33 11 72 13
40 2 79 8 85 14 9 7 13 7 13 -2 0 -10 3 -10 15 0 8 7 21 10 30 7 8 -4 17 -1
21 4 3 6 14 9 25 6 15 -4 64 32 50 37 -14 4 20 34 54 47 37 14 40 14 43 -3 2
-10 9 -18 17 -18z m-138 -42 c-3 -8 -6 -5 -6 6 -1 11 2 17 5 13 3 -3 4 -12 1
-19z m-2037 -98 c0 -5 -2 -10 -4 -10 -3 0 -8 5 -11 10 -3 6 -1 10 4 10 6 0 11
-4 11 -10z m-15 -54 c10 -3 12 0 8 11 -4 11 -2 14 5 9 16 -10 15 -25 -2 -32
-20 -8 -60 27 -43 38 7 4 13 2 15 -6 2 -8 9 -17 17 -20z m-10 -26 c6 -10 23
-8 63 7 6 3 12 -1 11 -8 0 -23 -60 -63 -95 -64 -29 -1 -31 0 -21 17 7 10 17
18 24 18 7 0 13 5 13 11 0 7 -11 8 -31 4 -28 -6 -30 -6 -18 9 16 18 45 21 54
6z m115 -70 c0 -5 -5 -10 -11 -10 -5 0 -7 5 -4 10 3 6 8 10 11 10 2 0 4 -4 4
-10z m-60 -10 c0 -5 -4 -10 -10 -10 -5 0 -10 5 -10 10 0 6 5 10 10 10 6 0 10
-4 10 -10z m24 -19 c3 -5 -2 -12 -11 -15 -15 -6 -15 -8 -3 -17 11 -7 6 -8 -15
-3 -25 5 -28 4 -17 -7 6 -7 12 -20 11 -28 0 -10 -2 -11 -5 -4 -4 9 -13 9 -31
2 -33 -12 -38 -7 -13 16 11 10 20 23 20 30 0 7 10 17 23 23 28 14 35 14 41 3z
m-84 -11 c0 -5 -4 -10 -10 -10 -5 0 -10 5 -10 10 0 6 5 10 10 10 6 0 10 -4 10
-10z m-1465 -20 c-3 -5 -10 -10 -16 -10 -5 0 -9 5 -9 10 0 6 7 10 16 10 8 0
12 -4 9 -10z m1441 -2 c5 -8 0 -9 -14 -6 -15 4 -22 2 -22 -8 0 -8 -11 -19 -24
-24 -13 -5 -28 -15 -33 -23 -5 -9 -15 -12 -27 -7 -17 6 -15 9 15 30 19 13 36
27 39 31 14 18 56 23 66 7z m-1525 -21 c-1 -12 -15 -9 -19 4 -3 6 1 10 8 8 6
-3 11 -8 11 -12z m143 -48 c-10 -17 -55 -30 -70 -21 -19 11 -1 28 36 34 30 5
42 0 34 -13z m31 11 c3 -5 1 -10 -4 -10 -6 0 -11 5 -11 10 0 6 2 10 4 10 3 0
8 -4 11 -10z m1063 -30 c6 0 12 -4 14 -9 2 -5 24 -3 50 4 26 6 51 8 55 4 4 -4
17 -9 28 -11 17 -3 15 -7 -16 -28 -20 -14 -35 -31 -33 -38 1 -7 0 -8 -3 -2 -7
15 -33 12 -39 -5 -4 -8 -13 -15 -21 -15 -8 0 -13 -5 -11 -12 3 -7 -7 -23 -20
-35 -14 -13 -22 -27 -17 -31 4 -4 10 -1 12 6 3 6 13 12 23 12 10 0 22 5 25 10
3 6 21 10 38 10 l32 0 -32 -20 c-18 -11 -33 -28 -34 -37 0 -10 -3 -13 -6 -6
-3 10 -9 10 -26 0 -12 -7 -25 -16 -28 -21 -9 -12 -88 -10 -103 3 -7 6 -17 7
-22 3 -5 -4 -43 -4 -84 -1 -41 3 -67 6 -57 7 21 2 23 22 2 22 -12 0 -10 5 5
20 12 12 18 25 15 30 -4 6 2 11 12 11 15 1 15 2 -2 6 -11 3 -28 12 -37 21 -11
9 -18 11 -18 4 0 -7 5 -12 12 -12 6 0 9 -3 5 -6 -10 -10 -47 7 -47 21 0 9 -6
12 -15 9 -8 -4 -15 -1 -15 6 0 8 9 11 25 8 14 -3 25 -1 25 4 0 5 5 6 10 3 6
-4 10 -3 9 2 -4 22 3 33 20 33 11 0 21 -5 23 -11 3 -8 10 -6 21 5 9 10 17 13
17 7 0 -16 41 -24 54 -11 8 10 6 11 -11 5 -24 -7 -29 1 -15 23 5 7 16 10 28 6
18 -6 18 -6 -1 9 -20 16 -20 16 2 12 12 -2 32 -9 45 -16 13 -6 20 -8 15 -3 -4
4 7 13 25 19 26 9 35 9 44 -2 6 -7 16 -13 22 -13z m58 15 c-23 -17 -36 -19
-36 -6 0 11 18 19 40 20 11 0 10 -3 -4 -14z m-1256 -14 c0 -6 -4 -13 -10 -16
-5 -3 -10 1 -10 9 0 9 5 16 10 16 6 0 10 -4 10 -9z m290 -5 c0 -15 -24 -28
-34 -19 -10 10 -7 25 4 18 6 -3 10 -1 10 4 0 6 5 11 10 11 6 0 10 -6 10 -14z
m-56 -21 c3 -9 0 -15 -8 -15 -8 0 -16 7 -20 15 -3 9 0 15 8 15 8 0 16 -7 20
-15z m-59 -9 c19 -19 3 -31 -50 -40 -39 -6 -39 -6 -15 8 14 9 19 15 13 16 -22
0 -14 18 10 23 12 2 23 5 25 6 2 0 10 -5 17 -13z m1284 -13 c-19 -24 -31 -33
-49 -33 -8 0 1 11 20 25 42 29 47 30 29 8z m-1419 -33 c13 -8 13 -10 -2 -10
-9 0 -20 5 -23 10 -8 13 5 13 25 0z m-50 -21 c0 -7 -11 -8 -30 -4 -19 4 -41 1
-61 -9 -36 -18 -49 -20 -49 -7 0 12 58 29 103 30 20 1 37 -4 37 -10z m837 5
c-3 -3 -12 -4 -19 -1 -8 3 -5 6 6 6 11 1 17 -2 13 -5z m533 -19 c-7 -8 -22
-14 -34 -14 -17 1 -17 2 -3 6 9 2 17 9 17 14 0 5 7 9 16 9 14 0 14 -3 4 -15z
m-590 -25 c-20 -13 -63 -13 -55 0 4 6 9 9 13 6 4 -2 16 0 27 4 25 9 35 2 15
-10z m110 16 c0 -3 -4 -8 -10 -11 -5 -3 -10 -1 -10 4 0 6 5 11 10 11 6 0 10
-2 10 -4z m50 -16 c0 -5 -4 -10 -10 -10 -5 0 -10 5 -10 10 0 6 5 10 10 10 6 0
10 -4 10 -10z m-34 -29 c-8 -13 -36 -15 -36 -3 0 4 5 13 12 20 14 14 34 0 24
-17z m-230 -16 c-7 -8 -25 -17 -40 -21 -14 -3 -23 -11 -20 -16 4 -6 -2 -7 -16
-3 -17 5 -21 4 -15 -5 5 -8 4 -11 -3 -6 -6 4 -35 -6 -63 -21 -29 -15 -47 -29
-41 -31 31 -10 6 -21 -43 -18 -87 4 -83 10 45 61 36 15 76 34 90 43 14 9 40
15 58 13 23 -2 32 2 32 13 0 9 6 13 15 10 12 -5 12 -8 1 -19z m694 -10 c0 -8
-9 -15 -20 -15 -11 0 -20 4 -20 10 0 5 7 7 15 4 8 -4 15 -1 15 5 0 6 2 11 5
11 3 0 5 -7 5 -15z m-634 -30 c-8 -8 -20 -15 -26 -15 -16 0 12 29 28 30 10 0
10 -4 -2 -15z m579 -25 c-9 -15 -42 -12 -49 5 -3 9 0 15 9 15 8 0 15 5 15 11
0 6 7 3 16 -5 8 -9 12 -20 9 -26z m390 11 c6 -27 9 -29 32 -20 19 7 28 6 33
-1 5 -8 15 -2 29 16 11 14 21 22 21 15 0 -6 9 -11 21 -11 16 0 19 -4 14 -20
-4 -12 0 -26 9 -36 9 -8 16 -21 16 -29 0 -15 -42 -45 -64 -45 -7 0 -16 -7 -20
-15 -3 -8 -23 -18 -46 -21 -22 -4 -40 -10 -40 -15 0 -5 -6 -9 -14 -9 -8 0 -17
-6 -20 -12 -5 -10 -7 -10 -12 0 -3 6 -17 12 -30 12 -21 0 -24 4 -19 28 l5 27
-11 -27 c-10 -25 -12 -26 -26 -12 -14 13 -14 17 -2 26 11 7 11 11 2 15 -13 5
-19 33 -7 33 3 0 12 -7 21 -15 8 -9 18 -13 22 -10 3 4 -9 20 -28 37 -25 22
-40 28 -60 24 -26 -5 -26 -5 -3 6 18 9 28 9 40 0 10 -7 24 -15 32 -19 8 -4 18
-11 22 -17 4 -6 8 -1 8 12 0 14 6 22 18 22 9 0 26 7 37 16 16 12 18 18 7 34
-14 23 -16 40 -3 40 5 0 12 -13 16 -29z m-28 -18 c3 -7 -3 -9 -16 -6 -12 3
-21 10 -21 15 0 13 32 6 37 -9z m-27 -23 c0 -5 -5 -10 -11 -10 -5 0 -7 5 -4
10 3 6 8 10 11 10 2 0 4 -4 4 -10z m-1300 -23 c9 -3 4 -6 -12 -6 -21 -1 -26 3
-21 15 3 9 9 11 12 6 3 -5 13 -12 21 -15z m1265 3 c3 -5 2 -10 -4 -10 -5 0
-13 5 -16 10 -3 6 -2 10 4 10 5 0 13 -4 16 -10z m-1175 -28 c0 -12 -69 -32
-86 -25 -24 9 -4 24 24 19 15 -3 34 -2 42 4 18 12 20 12 20 2z m-126 -14 c-3
-4 -14 -8 -24 -8 -10 0 -22 -5 -25 -11 -4 -5 -17 -9 -28 -8 -40 3 -49 -1 -43
-16 3 -8 9 -22 12 -30 4 -10 0 -15 -10 -15 -9 0 -16 7 -16 15 0 16 -12 20 -24
8 -9 -9 -46 -11 -51 -3 -6 10 71 60 104 70 35 10 111 9 105 -2z m1116 -18 c0
-5 -5 -10 -11 -10 -5 0 -7 5 -4 10 3 6 8 10 11 10 2 0 4 -4 4 -10z m-1180 -40
c0 -5 -4 -10 -10 -10 -5 0 -10 5 -10 10 0 6 5 10 10 10 6 0 10 -4 10 -10z
m-170 -14 c0 -3 -4 -8 -10 -11 -5 -3 -10 -1 -10 4 0 6 5 11 10 11 6 0 10 -2
10 -4z m1440 -26 c0 -5 -4 -10 -10 -10 -5 0 -10 5 -10 10 0 6 5 10 10 10 6 0
10 -4 10 -10z m-1280 -20 c0 -5 -4 -10 -10 -10 -5 0 -10 5 -10 10 0 6 5 10 10
10 6 0 10 -4 10 -10z m3940 -550 c0 -11 -7 -20 -15 -20 -17 0 -18 2 -9 24 9
23 24 20 24 -4z m-526 -113 c5 -21 3 -28 -6 -25 -7 3 -14 20 -16 39 -4 40 12
30 22 -14z m1214 -179 c-6 -16 -36 -34 -44 -25 -9 9 15 37 33 37 8 0 13 -5 11
-12z m-1214 -263 c3 -8 1 -15 -4 -15 -6 0 -10 7 -10 15 0 8 2 15 4 15 2 0 6
-7 10 -15z"/>
<path d="M7198 3975 c3 -19 8 -23 15 -16 8 8 7 16 -5 27 -14 14 -15 14 -10
-11z"/>
<path d="M6940 3936 c0 -2 7 -9 15 -16 9 -7 15 -8 15 -2 0 5 -7 12 -15 16 -8
3 -15 4 -15 2z"/>
<path d="M6980 3903 c0 -12 5 -25 10 -28 13 -8 13 15 0 35 -8 12 -10 11 -10
-7z"/>
<path d="M720 2851 c0 -7 -4 -9 -10 -6 -6 4 -7 -1 -3 -11 6 -15 7 -15 15 1 6
9 7 19 4 22 -3 4 -6 1 -6 -6z"/>
<path d="M581 2834 c0 -11 3 -14 6 -6 3 7 2 16 -1 19 -3 4 -6 -2 -5 -13z"/>
<path d="M2527 2609 c7 -7 15 -10 18 -7 3 3 -2 9 -12 12 -14 6 -15 5 -6 -5z"/>
<path d="M6258 2068 c9 -9 15 -9 24 0 9 9 7 12 -12 12 -19 0 -21 -3 -12 -12z"/>
<path d="M5590 1870 c19 -13 30 -13 30 0 0 6 -10 10 -22 10 -19 0 -20 -2 -8
-10z"/>
<path d="M5350 1260 c0 -5 5 -10 11 -10 5 0 7 5 4 10 -3 6 -8 10 -11 10 -2 0
-4 -4 -4 -10z"/>
<path d="M5020 665 c-10 -12 -10 -15 4 -15 9 0 16 7 16 15 0 8 -2 15 -4 15 -2
0 -9 -7 -16 -15z"/>
<path d="M4591 1984 c0 -11 3 -14 6 -6 3 7 2 16 -1 19 -3 4 -6 -2 -5 -13z"/>
<path d="M4122 920 c0 -14 2 -19 5 -12 2 6 2 18 0 25 -3 6 -5 1 -5 -13z"/>
<path d="M1948 1573 c7 -3 16 -2 19 1 4 3 -2 6 -13 5 -11 0 -14 -3 -6 -6z"/>
<path d="M1845 1552 c4 -11 -1 -13 -21 -8 -17 5 -23 3 -19 -4 12 -20 75 -8 75
14 0 6 -9 12 -20 12 -13 0 -19 -5 -15 -14z"/>
<path d="M1755 1540 c-3 -6 1 -7 9 -4 18 7 21 14 7 14 -6 0 -13 -4 -16 -10z"/>
<path d="M1778 1503 c-10 -2 -18 -11 -18 -19 0 -19 7 -18 32 6 22 20 19 22
-14 13z"/>
<path d="M2431 1254 c0 -11 3 -14 6 -6 3 7 2 16 -1 19 -3 4 -6 -2 -5 -13z"/>
<path d="M2159 4403 c0 -10 -2 -28 -5 -40 -6 -34 4 -28 21 13 18 45 18 44 0
44 -8 0 -15 -8 -16 -17z"/>
<path d="M2920 4350 c0 -5 5 -10 11 -10 5 0 7 5 4 10 -3 6 -8 10 -11 10 -2 0
-4 -4 -4 -10z"/>
<path d="M2800 4260 c0 -5 5 -10 11 -10 5 0 7 5 4 10 -3 6 -8 10 -11 10 -2 0
-4 -4 -4 -10z"/>
<path d="M2655 4221 c-7 -12 12 -24 25 -16 11 7 4 25 -10 25 -5 0 -11 -4 -15
-9z"/>
<path d="M4937 4028 c-4 -12 -4 -24 -1 -27 8 -9 37 27 30 38 -11 17 -23 13
-29 -11z"/>
<path d="M2751 3824 c0 -11 3 -14 6 -6 3 7 2 16 -1 19 -3 4 -6 -2 -5 -13z"/>
<path d="M3375 3800 c-3 -5 -1 -10 4 -10 6 0 11 5 11 10 0 6 -2 10 -4 10 -3 0
-8 -4 -11 -10z"/>
<path d="M2746 3781 c-4 -7 -5 -15 -2 -18 9 -9 19 4 14 18 -4 11 -6 11 -12 0z"/>
<path d="M2590 3764 c0 -3 9 -15 20 -26 14 -16 23 -19 31 -11 8 8 2 15 -20 26
-17 9 -31 13 -31 11z"/>
<path d="M2690 3746 c0 -2 7 -6 15 -10 8 -3 15 -1 15 4 0 6 -7 10 -15 10 -8 0
-15 -2 -15 -4z"/>
<path d="M2732 3728 c6 -18 28 -21 28 -4 0 9 -7 16 -16 16 -9 0 -14 -5 -12
-12z"/>
<path d="M2607 3703 c-10 -9 -9 -53 1 -53 4 0 13 5 20 12 9 9 12 8 16 -3 13
-39 15 -41 13 -9 -2 27 -6 35 -20 33 -12 0 -16 4 -13 13 6 14 -6 19 -17 7z"/>
<path d="M4676 3691 c-4 -7 -5 -15 -2 -18 9 -9 19 4 14 18 -4 11 -6 11 -12 0z"/>
<path d="M4700 3670 c0 -5 6 -10 14 -10 8 0 18 5 21 10 3 6 -3 10 -14 10 -12
0 -21 -4 -21 -10z"/>
<path d="M2681 3653 c0 -12 -4 -30 -7 -40 -5 -17 -5 -17 6 0 6 10 9 28 7 40
-4 22 -4 22 -6 0z"/>
<path d="M2584 3543 c3 -6 2 -14 -4 -18 -13 -8 -13 -35 -1 -35 16 0 24 41 11
54 -10 8 -11 8 -6 -1z"/>
<path d="M4671 3505 c0 -10 -15 -34 -33 -52 -18 -18 -28 -33 -22 -33 21 0 65
60 61 82 -4 19 -5 20 -6 3z"/>
<path d="M2570 3451 c0 -6 5 -13 10 -16 6 -3 10 1 10 9 0 9 -4 16 -10 16 -5 0
-10 -4 -10 -9z"/>
<path d="M2736 3365 c-3 -8 -1 -15 3 -15 5 0 11 7 15 15 3 8 1 15 -3 15 -5 0
-11 -7 -15 -15z"/>
<path d="M2677 3350 c-4 -16 0 -20 19 -20 26 0 30 10 12 28 -17 17 -25 15 -31
-8z"/>
<path d="M2620 3331 c0 -11 59 -36 67 -27 3 3 -1 6 -9 6 -9 0 -21 7 -28 15
-14 17 -30 20 -30 6z"/>
<path d="M3030 3271 c0 -6 5 -13 10 -16 6 -3 10 1 10 9 0 9 -4 16 -10 16 -5 0
-10 -4 -10 -9z"/>
<path d="M3150 3270 c8 -5 24 -9 35 -9 l20 0 -20 9 c-11 5 -27 9 -35 9 -13 1
-13 0 0 -9z"/>
<path d="M2957 3263 c-14 -13 -6 -23 17 -23 28 0 43 -16 24 -23 -9 -4 -10 -6
-1 -6 21 -2 25 20 7 40 -17 19 -35 24 -47 12z"/>
<path d="M3650 3180 c-11 -7 -7 -10 18 -10 20 0 31 4 27 10 -8 13 -26 13 -45
0z"/>
<path d="M4080 3110 c-13 -9 -13 -10 0 -10 8 0 22 5 30 10 13 9 13 10 0 10 -8
0 -22 -5 -30 -10z"/>
<path d="M7448 1443 c7 -3 16 -2 19 1 4 3 -2 6 -13 5 -11 0 -14 -3 -6 -6z"/>
<path d="M7837 1393 c-4 -3 -7 -11 -7 -17 0 -6 5 -5 12 2 6 6 9 14 7 17 -3 3
-9 2 -12 -2z"/>
<path d="M7860 1290 c0 -5 5 -10 11 -10 5 0 7 5 4 10 -3 6 -8 10 -11 10 -2 0
-4 -4 -4 -10z"/>
<path d="M7919 898 c-1 -2 -2 -18 -4 -35 -2 -23 2 -33 11 -33 16 0 20 55 4 65
-5 3 -10 5 -11 3z"/>
<path d="M7088 813 c12 -2 30 -2 40 0 9 3 -1 5 -23 4 -22 0 -30 -2 -17 -4z"/>
<path d="M7900 810 c0 -5 5 -10 10 -10 6 0 10 5 10 10 0 6 -4 10 -10 10 -5 0
-10 -4 -10 -10z"/>
<path d="M7880 779 c0 -5 5 -7 10 -4 6 3 10 8 10 11 0 2 -4 4 -10 4 -5 0 -10
-5 -10 -11z"/>
<path d="M7981 570 c-1 -8 -4 -26 -7 -40 -5 -19 -4 -22 5 -14 7 6 11 24 8 40
-2 16 -5 22 -6 14z"/>
<path d="M7790 373 c0 -33 29 -82 30 -50 0 9 -5 17 -11 17 -7 0 -9 10 -5 24 3
14 2 28 -4 31 -6 4 -10 -6 -10 -22z"/>
<path d="M7963 317 c-34 -38 -63 -93 -63 -120 0 -46 -9 -58 -33 -45 -12 6 -32
12 -45 13 -21 1 -22 -2 -16 -46 4 -33 2 -55 -10 -77 -19 -36 -30 -40 -46 -14
-11 16 -11 16 -6 -1 3 -10 6 -21 6 -23 0 -2 56 -4 125 -4 l125 0 0 164 c0 91
-4 167 -9 170 -4 3 -17 -5 -28 -17z m8 -60 c-8 -8 -11 -7 -11 4 0 20 13 34 18
19 3 -7 -1 -17 -7 -23z"/>
<path d="M7790 209 c0 -5 5 -7 10 -4 6 3 10 8 10 11 0 2 -4 4 -10 4 -5 0 -10
-5 -10 -11z"/>
<path d="M5507 163 c-11 -10 -8 -20 6 -20 6 0 73 -3 147 -6 136 -6 131 0 -20
23 -77 11 -124 13 -133 3z"/>
</g>
</svg>
